<?xml version="1.0" encoding="utf-8"?>
<!-- Generator: Adobe Illustrator 19.2.1, SVG Export Plug-In . SVG Version: 6.00 Build 0)  -->
<svg version="1.1" id="Layer_1" xmlns="http://www.w3.org/2000/svg" xmlns:xlink="http://www.w3.org/1999/xlink" x="0px" y="0px"
	 viewBox="0 0 300 275.6" style="enable-background:new 0 0 300 275.6;" xml:space="preserve">
<style type="text/css">
	.st0{fill:#DF9526;}
</style>
<path class="st0" d="M13,275.6V86.5l260.9,189.1H300V73.7c0-2.4-1.4-4.7-3.6-5.8c-2.2-1.1-4.8-0.9-6.8,0.5L259,90.7v-50
	c0-2.4-1.4-4.7-3.6-5.8c-2.2-1.1-4.8-0.9-6.8,0.5L218,57.7V6.5c0-2.4-1.4-4.7-3.6-5.8c-2.2-1.1-4.8-0.9-6.8,0.5L150,43L92.3,1.2
	c-2-1.4-4.6-1.6-6.8-0.5C83.4,1.8,82,4.1,82,6.5v51.2L51.3,35.4c-2-1.4-4.6-1.6-6.8-0.5C42.4,36,41,38.3,41,40.7v50L10.3,68.5
	c-2-1.4-4.6-1.6-6.8-0.5C1.4,69,0,71.3,0,73.7v201.9H13z M287,86.5V269l-125.9-91.2L287,86.5z M246,53.5v46.6l-96,69.6l-32.2-23.3
	L246,53.5z M205,19.3v47.8L194.1,75l-33-23.9L205,19.3z M95,19.3l88,63.8L150,107L95,67.1V19.3z M54,53.5l84.9,61.5l-32.2,23.3
	L54,100.1V53.5z"/>
</svg>
