<?xml version="1.0" encoding="utf-8"?>
<!-- Generator: Adobe Illustrator 19.2.1, SVG Export Plug-In . SVG Version: 6.00 Build 0)  -->
<svg version="1.1" id="Layer_1" xmlns="http://www.w3.org/2000/svg" xmlns:xlink="http://www.w3.org/1999/xlink" x="0px" y="0px"
	 viewBox="0 0 1400 91.4" style="enable-background:new 0 0 1400 91.4;" xml:space="preserve">
<style type="text/css">
	.st0{fill:#FAAE1B;}
</style>
<g>
	<path class="st0" d="M51.4,57.7C62.7,53.3,69.7,43,69.7,30.6c0-17.1-12.6-29-30.6-29H3.7C1.7,1.6,0,3.3,0,5.3v80.8
		c0,2,1.7,3.7,3.7,3.7h2.5c2,0,3.7-1.6,3.7-3.7L9.7,59.8h30.8c0.3,0,0.4,0,0.5,0.1l19.5,27.4c1,1.5,2.7,2.4,4.5,2.4h3.9
		c1,0,1.9-0.5,2.4-1.3c0.5-0.9,0.5-1.9-0.1-3L51.4,57.7z M59.9,30.7c0,9.7-6.5,19.6-21.1,19.6l-29,0.2L9.7,11.2h29.2
		C53.3,11.2,59.9,21.3,59.9,30.7z"/>
	<path class="st0" d="M259,1.6h-3.8c-1.7,0-3.5,0.9-4.4,2.3l-31.4,43.7L188.1,4c-1-1.5-2.7-2.4-4.5-2.4h-3.8c-1,0-1.9,0.5-2.4,1.4
		c-0.5,0.9-0.5,1.9,0.1,3l36.4,50.9c0.3,0.4,0.5,1.2,0.5,1.7v27.5c0,2,1.7,3.7,3.7,3.7h2.5c2,0,3.7-1.6,3.7-3.7V58.5
		c0-0.5,0.2-1.3,0.5-1.7l36.5-51c0.5-0.9,0.5-2,0-2.9C260.9,2.1,260,1.6,259,1.6z"/>
	<path class="st0" d="M404.3,4.3c-0.9-1.6-2.6-2.6-4.3-2.6h-3c-1.7,0-3.4,1-4.3,2.6l-37.1,81.2c-0.5,0.9-0.5,2,0,2.9
		c0.5,0.9,1.5,1.5,2.6,1.5h3.3c1.8,0,3.6-1.1,4.3-2.8l7.1-15.9c0.2-0.3,0.4-0.5,0.6-0.5h50.2c0.2,0,0.5,0.2,0.6,0.4l7.3,15.9
		c0.7,1.7,2.5,2.8,4.3,2.8h3.2c1.1,0,2-0.5,2.6-1.5c0.5-0.9,0.5-2,0.1-2.7L404.3,4.3z M419.5,61.1h-42.2l21.1-46.7L419.5,61.1z"/>
	<path class="st0" d="M629.1,1.6h-2.6c-2,0-3.7,1.7-3.7,3.7v66.8L568.5,3.8c-1.1-1.4-2.7-2.2-4.5-2.2h-1.8c-2,0-3.7,1.7-3.7,3.7
		v80.8c0,2,1.6,3.7,3.7,3.7h2.5c2,0,3.7-1.6,3.7-3.7V19.2l54.4,68.4c1.2,1.3,2.8,2.1,4.4,2.1h2c2,0,3.7-1.6,3.7-3.7V5.3
		C632.8,3.3,631.1,1.6,629.1,1.6z"/>
	<path class="st0" d="M810.7,57.7c11.3-4.4,18.3-14.7,18.3-27.1c0-17.1-12.6-29-30.6-29H763c-2,0-3.7,1.7-3.7,3.7v80.8
		c0,2,1.6,3.7,3.7,3.7h2.5c2,0,3.7-1.6,3.7-3.7L769,59.8h30.8c0.3,0,0.4,0,0.5,0.1l19.5,27.4c1,1.5,2.7,2.4,4.5,2.4h3.9
		c1,0,1.9-0.5,2.4-1.3c0.5-0.9,0.5-1.9-0.1-3L810.7,57.7z M819.3,30.7c0,9.7-6.5,19.6-21.1,19.6l-29,0.2L769,11.2h29.2
		C812.7,11.2,819.3,21.3,819.3,30.7z"/>
	<path class="st0" d="M990.5,0c-25.3,0-45.9,20.5-45.9,45.7c0,25.2,20.6,45.7,45.9,45.7c25.3,0,45.8-20.5,45.8-45.7
		C1036.3,20.5,1015.7,0,990.5,0z M990.5,81.6c-19.8,0-36-16.1-36-35.8c0-19.8,16.1-35.9,36-35.9c19.8,0,35.8,16.1,35.8,35.9
		C1026.3,65.5,1010.2,81.6,990.5,81.6z"/>
	<path class="st0" d="M1185.7,40.9l-0.3-0.1c-15-4.7-24.1-8.3-24.1-17.4c0-8.7,8.3-14,21.6-14c13.2,0,22.5,5.2,23.6,13.2
		c0.2,2.1,1.9,3.7,3.9,3.7h2.4c0.9,0,1.7-0.4,2.4-1.2c0.8-0.9,1.2-2.1,1.1-3.1c-0.9-13-14.6-22.1-33.3-22.1
		c-19,0-31.8,9.6-31.8,23.9c0,16.8,18.2,22.3,31.4,26.4c15.1,4.6,25.1,8.3,25.1,17.7c0,8.6-8.6,14-22.5,14
		c-13.8,0-23.6-5.2-24.8-13.1c-0.2-2-1.7-3.5-4-3.7l-1.7,0c-1-0.1-2.1,0.3-2.8,1.1c-0.8,0.8-1.3,2-1.2,3.2c1,13,15.2,22,34.5,22
		c19.9,0,32.8-9.3,32.8-23.8C1217.9,50.7,1199.3,45,1185.7,40.9z"/>
	<path class="st0" d="M1400,7.7V5.3c0-2-1.6-3.7-3.7-3.7H1342c-2,0-3.7,1.7-3.7,3.7v80.8c0,2,1.7,3.7,3.7,3.7h54.3
		c2,0,3.7-1.6,3.7-3.7v-2.4c0-2-1.6-3.7-3.7-3.7l-48.1,0.2l-0.2-29h40.6c2,0,3.7-1.7,3.7-3.7v-2.2c0-2-1.6-3.7-3.7-3.7l-40.4,0.2
		l-0.2-30.5h48.3C1398.4,11.4,1400,9.7,1400,7.7z"/>
</g>
</svg>
