<?xml version="1.0" encoding="utf-8"?>
<!-- Generator: Adobe Illustrator 19.2.1, SVG Export Plug-In . SVG Version: 6.00 Build 0)  -->
<svg version="1.1" id="Layer_1" xmlns="http://www.w3.org/2000/svg" xmlns:xlink="http://www.w3.org/1999/xlink" x="0px" y="0px"
	 viewBox="0 0 401 312.4" style="enable-background:new 0 0 401 312.4;" xml:space="preserve">
<style type="text/css">
	.st0{fill:#FAAE1B;}
</style>
<g>
	<path class="st0" d="M0,1.8C0,0.8,0.8,0,1.8,0h32c16.6,0,26.1,11.4,26.1,24.7c0,10.4-5.8,19.5-16.2,23.3c-0.6,0.2-0.9,1-0.5,1.6
		l18.4,25.6c0.4,0.7,0,1.5-0.8,1.5h-3.5c-1.1,0-2.2-0.6-2.8-1.5L36.8,50.3c-0.5-0.5-1-0.8-1.8-0.8c-0.4,0-0.9,0-1.3,0H7.2
		c-0.8,0-1.4,0.6-1.4,1.4v24c0,1-0.8,1.8-1.8,1.8H1.8c-1,0-1.8-0.8-1.8-1.8V1.8z M33.6,5.5H7.2c-0.8,0-1.4,0.6-1.4,1.4v35.8
		c0,0.8,0.6,1.4,1.4,1.4h26.4c13.4,0,20.6-9,20.6-19.3C54.2,14.6,47,5.5,33.6,5.5z"/>
	<path class="st0" d="M106,0c1.1,0,2.2,0.6,2.8,1.5l28.8,40.2c0.4,0.5,1.2,0.5,1.6,0L168,1.5c0.6-0.9,1.7-1.5,2.8-1.5h3.4
		c0.8,0,1.2,0.8,0.8,1.5l-32.9,46c-0.5,0.7-0.8,1.7-0.8,2.5v24.9c0,1-0.8,1.8-1.8,1.8h-2.3c-1,0-1.8-0.8-1.8-1.8V50
		c0-0.8-0.3-1.8-0.8-2.5L101.8,1.5c-0.4-0.7,0-1.5,0.8-1.5H106z"/>
	<path class="st0" d="M237.8,1.6c0.5-0.9,1.5-1.6,2.6-1.6h2.8c1.1,0,2.1,0.7,2.6,1.6L279.3,75c0.4,0.7-0.1,1.6-1,1.6h-2.8
		c-1.1,0-2.1-0.7-2.5-1.6l-6.6-14.4c-0.4-0.8-1.2-1.3-2-1.3h-45.4c-0.8,0-1.6,0.5-2,1.3L210.6,75c-0.4,0.9-1.4,1.6-2.5,1.6h-2.9
		c-0.9,0-1.4-0.9-1-1.6L237.8,1.6z M242.3,7.6c-0.3-0.5-0.9-0.5-1.2,0l-20.3,45c-0.3,0.6,0.1,1.3,0.8,1.3h40.3
		c0.7,0,1.1-0.7,0.8-1.3L242.3,7.6z"/>
	<path class="st0" d="M342.8,74.8c0,1-0.8,1.8-1.8,1.8h-2.3c-1,0-1.8-0.8-1.8-1.8V1.8c0-1,0.8-1.8,1.8-1.8h1.7
		c1.1,0,2.2,0.6,2.8,1.4l51.1,64.2c0.3,0.4,0.9,0.2,0.9-0.3V1.8c0-1,0.8-1.8,1.8-1.8h2.3c1,0,1.8,0.8,1.8,1.8v73.1
		c0,1-0.8,1.8-1.8,1.8h-1.7c-1.1,0-2.2-0.5-2.8-1.4l-51.1-64.1c-0.3-0.4-0.9-0.2-0.9,0.3V74.8z"/>
	<path class="st0" d="M0,119.7c0-1,0.8-1.8,1.8-1.8h32c16.6,0,26.1,11.4,26.1,24.7c0,10.4-5.8,19.5-16.2,23.3
		c-0.6,0.2-0.9,1-0.5,1.6L61.6,193c0.4,0.7,0,1.5-0.8,1.5h-3.5c-1.1,0-2.2-0.6-2.8-1.5l-17.7-24.9c-0.5-0.5-1-0.8-1.8-0.8
		c-0.4,0-0.9,0-1.3,0H7.2c-0.8,0-1.4,0.6-1.4,1.4v24c0,1-0.8,1.8-1.8,1.8H1.8c-1,0-1.8-0.8-1.8-1.8V119.7z M33.6,123.4H7.2
		c-0.8,0-1.4,0.6-1.4,1.4v35.8c0,0.8,0.6,1.4,1.4,1.4h26.4c13.4,0,20.6-9,20.6-19.3C54.2,132.5,47,123.4,33.6,123.4z"/>
	<path class="st0" d="M108.9,156.2c0-21.9,17.9-39.8,40-39.8c22,0,39.9,17.9,39.9,39.8c0,22-17.9,39.8-39.9,39.8
		C126.8,196,108.9,178.2,108.9,156.2z M114.8,156.2c0,18.8,15.3,34,34.1,34c18.7,0,34-15.2,34-34c0-18.7-15.3-34-34-34
		C130.2,122.2,114.8,137.5,114.8,156.2z"/>
	<path class="st0" d="M236.8,177.5c-0.1-1.1,0.9-2.3,2-2.2h1.7c1.2,0.1,2,0.9,2.1,2c1.2,7.8,10.1,13.3,24,13.3
		c14.2,0,21.9-6,21.9-14.2c0-10-10.8-13.6-23.8-17.5c-12.5-3.8-27.3-8.5-27.3-22.4c0-12,10.6-20,27.2-20c16,0,27.8,7.6,28.6,18.6
		c0.1,0.9-0.7,2.2-1.6,2.2h-2.2c-1.1,0-1.9-0.9-2-2c-1.1-7.9-9.6-13.4-22.9-13.4c-13.7,0-21.1,6-21.1,14.2
		c0,9.8,10.4,13.3,22.9,17.2c12.3,3.7,28.3,8.4,28.3,22.8c0,12.1-11.1,19.9-28.1,19.9C249.8,196,237.6,188.5,236.8,177.5z"/>
	<path class="st0" d="M349.8,194.5c-1,0-1.8-0.8-1.8-1.8v-73.1c0-1,0.8-1.8,1.8-1.8h49.1c1,0,1.8,0.8,1.8,1.8v2.2
		c0,1-0.8,1.8-1.8,1.8h-43.7c-0.8,0-1.4,0.6-1.4,1.4v27.8c0,0.8,0.6,1.4,1.4,1.4H392c1,0,1.8,0.8,1.8,1.8v2c0,1-0.8,1.8-1.8,1.8
		h-36.7c-0.8,0-1.4,0.6-1.4,1.4v26.4c0,0.8,0.6,1.4,1.4,1.4h43.7c1,0,1.8,0.8,1.8,1.8v2.2c0,1-0.8,1.8-1.8,1.8H349.8z"/>
	<path class="st0" d="M31.1,310.7c-0.4,1-1.3,1.7-2.4,1.7h-2.8c-1.1,0-2-0.7-2.4-1.7L0.1,237.4c-0.3-0.8,0.3-1.7,1.2-1.7H4
		c1.1,0,2,0.7,2.3,1.7l20.7,65c0.1,0.4,0.7,0.4,0.8,0l21.5-65c0.4-1,1.3-1.7,2.4-1.7h2.2c1.1,0,2,0.7,2.4,1.7l21.5,65
		c0.1,0.4,0.7,0.4,0.8,0l20.8-65c0.3-1,1.2-1.7,2.3-1.7h2.8c0.9,0,1.5,0.9,1.2,1.7L82,310.7c-0.4,1-1.3,1.7-2.4,1.7h-2.8
		c-1.1,0-2-0.7-2.4-1.7l-21.3-64.3c-0.1-0.4-0.7-0.4-0.8,0L31.1,310.7z"/>
	<path class="st0" d="M160.1,237.5c0-1,0.8-1.8,1.8-1.8h2.3c1,0,1.8,0.8,1.8,1.8v73.1c0,1-0.8,1.8-1.8,1.8h-2.3
		c-1,0-1.8-0.8-1.8-1.8V237.5z"/>
	<path class="st0" d="M230.7,310.6c0,1-0.8,1.8-1.8,1.8h-2.3c-1,0-1.8-0.8-1.8-1.8v-73.1c0-1,0.8-1.8,1.8-1.8h1.7
		c1.1,0,2.2,0.5,2.8,1.4l51.1,64.1c0.3,0.4,0.9,0.2,0.9-0.3v-63.5c0-1,0.8-1.8,1.8-1.8h2.4c1,0,1.8,0.8,1.8,1.8v73.1
		c0,1-0.8,1.8-1.8,1.8h-1.8c-1.1,0-2.2-0.6-2.8-1.4l-51.1-64.2c-0.3-0.4-0.9-0.2-0.9,0.3V310.6z"/>
	<path class="st0" d="M349.8,312.4c-1,0-1.8-0.8-1.8-1.8v-73.1c0-1,0.8-1.8,1.8-1.8h49.1c1,0,1.8,0.8,1.8,1.8v2.2
		c0,1-0.8,1.8-1.8,1.8h-43.7c-0.8,0-1.4,0.6-1.4,1.4v27.8c0,0.8,0.6,1.4,1.4,1.4H392c1,0,1.8,0.8,1.8,1.8v2c0,1-0.8,1.8-1.8,1.8
		h-36.7c-0.8,0-1.4,0.6-1.4,1.4v26.4c0,0.8,0.6,1.4,1.4,1.4h43.7c1,0,1.8,0.8,1.8,1.8v2.2c0,1-0.8,1.8-1.8,1.8H349.8z"/>
</g>
</svg>
